<svg xmlns="http://www.w3.org/2000/svg" xmlns:xlink="http://www.w3.org/1999/xlink" viewBox="0,0,256,256" width="70px" height="70px" fill-rule="nonzero"><g fill="none" fill-rule="nonzero" stroke="none" stroke-width="1" stroke-linecap="butt" stroke-linejoin="miter" stroke-miterlimit="10" stroke-dasharray="" stroke-dashoffset="0" font-family="none" font-weight="none" font-size="none" text-anchor="none" style="mix-blend-mode: normal"><g transform="scale(5.33333,5.33333)"><path d="M29,6h-13.256c-0.963,0 -1.744,0.781 -1.744,1.744v7.259h15z" fill="#8b8b8b"></path><path d="M14,33.054v7.202c0,0.963 0.781,1.744 1.743,1.744h13.257v-8.946z" fill="#434343"></path><path d="M14,15.003h15v9.002h-15z" fill="#7d7d7d"></path><path d="M14,24.005h15v9.05h-15z" fill="#4d4d4d"></path><g><path d="M42.256,6h-13.256v9.003h15v-7.259c0,-0.963 -0.781,-1.744 -1.744,-1.744z" fill="#d5d5d5"></path><path d="M29,33.054v8.946h13.257c0.962,0 1.743,-0.781 1.743,-1.743v-7.202h-15z" fill="#6f6f6f"></path><path d="M29,15.003h15v9.002h-15z" fill="#b9b9b9"></path><path d="M29,24.005h15v9.05h-15z" fill="#9b9b9b"></path></g><path d="M22.319,34h-16.638c-0.928,0 -1.681,-0.753 -1.681,-1.681v-16.638c0,-0.928 0.753,-1.681 1.681,-1.681h16.638c0.928,0 1.681,0.753 1.681,1.681v16.638c0,0.928 -0.753,1.681 -1.681,1.681z" fill="#6b6b6b"></path><path d="M9.807,19h2.386l1.936,3.754l2.046,-3.754h2.229l-3.071,5l3.141,5h-2.351l-2.11,-3.93l-2.101,3.93h-2.386l3.193,-5.018z" fill="#ffffff"></path></g></g></svg>